<?xml version="1.0" encoding="UTF-8" standalone="no"?>
<!-- Created with matplotlib (https://matplotlib.org/) -->

<svg
   height="241.91998pt"
   version="1.1"
   viewBox="0 0 324.65455 241.91998"
   width="324.65454pt"
   id="svg257"
   sodipodi:docname="logo.svg"
   inkscape:version="1.1 (ce6663b3b7, 2021-05-25)"
   xmlns:inkscape="http://www.inkscape.org/namespaces/inkscape"
   xmlns:sodipodi="http://sodipodi.sourceforge.net/DTD/sodipodi-0.dtd"
   xmlns="http://www.w3.org/2000/svg"
   xmlns:svg="http://www.w3.org/2000/svg">
  <sodipodi:namedview
     id="namedview259"
     pagecolor="#ffffff"
     bordercolor="#666666"
     borderopacity="1.0"
     inkscape:pageshadow="2"
     inkscape:pageopacity="0.0"
     inkscape:pagecheckerboard="0"
     inkscape:document-units="pt"
     showgrid="false"
     fit-margin-top="0"
     fit-margin-left="0"
     fit-margin-right="0"
     fit-margin-bottom="0"
     inkscape:zoom="1.8945312"
     inkscape:cx="18.21031"
     inkscape:cy="158.87835"
     inkscape:window-width="3840"
     inkscape:window-height="2096"
     inkscape:window-x="0"
     inkscape:window-y="27"
     inkscape:window-maximized="1"
     inkscape:current-layer="svg257" />
  <defs
     id="defs4">
    <style
       type="text/css"
       id="style2">
*{stroke-linecap:butt;stroke-linejoin:round;}
  </style>
  </defs>
  <g
     id="patch_1"
     transform="translate(-73.832727,-53.568052)" />
  <g
     id="patch_3"
     transform="translate(-73.832727,-53.568052)">
    <path
       clip-path="url(#p788a0bc363)"
       d="m 73.832727,295.488 0.851485,-50.50119 1.166758,-31.59107 1.166759,-20.78815 1.166759,-15.9549 1.166758,-13.0073 1.166759,-10.96248 1.166758,-9.4378 1.166759,-8.24711 1.166758,-7.28671 1.166759,-6.49341 1.166758,-5.82597 1.166759,-5.25617 1.166758,-4.7639 1.166759,-4.33436 1.166758,-3.956397 1.166759,-3.621384 1.166759,-3.322564 1.166758,-3.054538 1.166759,-2.812942 1.166758,-2.5942 1.166759,-2.395357 1.166758,-2.213943 1.166759,-2.047881 1.16676,-1.895407 1.16676,-1.755015 1.16675,-1.625412 1.16676,-1.505475 1.16676,-1.394238 1.16676,-1.290846 1.16676,-1.19456 1.16676,-1.104721 1.16676,-1.020753 1.16675,-0.942139 1.16676,-0.868424 1.16676,-0.799198 1.16676,-0.734096 1.16676,-0.672791 1.16676,-0.614986 1.16676,-0.560412 1.16675,-0.508832 1.16676,-0.460024 1.16676,-0.41379 1.16676,-0.369947 1.16676,-0.328333 1.16676,-0.288794 1.16676,-0.251194 1.16675,-0.215403 1.16676,-0.181307 1.16676,-0.148799 1.16676,-0.117776 1.16676,-0.08815 1.16676,-0.05984 1.16676,-0.03276 1.16675,-0.0068 1.16676,0.01797 1.16676,0.04176 1.16676,0.06458 1.16676,0.08647 1.16676,0.107494 1.16676,0.127695 1.16675,0.147115 1.16676,0.165797 1.16676,0.18378 1.16676,0.201097 1.16676,0.217785 1.16676,0.233873 1.16676,0.249393 1.16675,0.264371 1.16676,0.278835 1.16676,0.292807 1.16676,0.306313 1.16676,0.319374 1.16676,0.332011 1.16675,0.344243 1.16676,0.356088 1.16676,0.367566 1.16676,0.378691 1.16676,0.389479 1.16676,0.399946 1.16676,0.410106 1.16675,0.419971 1.16676,0.429554 1.16676,0.438869 1.16676,0.447926 1.16676,0.456735 1.16676,0.465308 1.16676,0.473654 1.16675,0.481783 1.16676,0.489703 1.16676,0.497424 1.16676,0.504953 1.16676,0.512297 1.16676,0.519466 1.16676,0.526466 1.16675,0.533302 1.16676,0.539983 1.16676,0.546514 1.16676,0.552901 1.16676,0.559151 1.16676,0.565267 1.16676,0.571257 1.16675,0.577124 1.16676,0.582875 1.16676,0.588511 1.16676,0.59404 1.16676,0.599466 1.16676,0.604791 1.16676,0.61002 1.16675,0.615158 1.16676,0.620208 1.16676,0.625172 1.16676,0.630057 1.16676,0.634862 1.16676,0.639593 1.16675,0.644254 1.16676,0.648844 1.16676,0.65337 1.16676,0.657833 1.16676,0.662236 1.16676,0.666581 1.16676,0.670872 1.16675,0.67511 1.16676,0.679298 1.16676,0.683439 1.16676,0.687534 1.16676,0.691586 1.16676,0.695598 1.16676,0.69957 1.16675,0.703505 1.16676,0.707407 1.16676,0.711274 1.16676,0.715112 1.16676,0.718919 1.16676,0.7227 1.16676,0.726456 1.16675,0.730187 1.16676,0.733896 1.16676,0.737586 1.16676,0.741256 1.16676,0.74491 1.16676,0.748548 1.16676,0.752172 1.16675,0.755783 1.16676,0.759385 1.16676,0.762987 1.16676,0.76656 1.16676,0.77013 1.16676,0.77372 1.16676,0.77728 1.16675,0.78085 1.16676,0.78441 1.16676,0.78799 1.16676,0.79155 1.16676,0.79513 1.16676,0.79871 1.16676,0.80229 1.16675,0.80589 1.16676,0.80949 1.16676,0.8131 1.16676,0.81673 1.16676,0.82037 1.16676,0.82403 1.16675,0.82769 1.16676,0.83139 1.16676,0.83509 1.16676,0.83883 1.16676,0.84257 1.16676,0.84635 1.16676,0.85015 1.16675,0.85398 1.16676,0.85783 1.16676,0.86172 1.16676,0.86564 1.16676,0.86959 1.16676,0.87357 1.16676,0.8776 1.16675,0.88165 1.16676,0.88576 1.16676,0.8899 1.16676,0.89408 1.16676,0.89832 1.16676,0.90259 1.16676,0.90692 1.16676,0.91131 1.16675,0.91573 1.16676,0.92023 1.16676,0.92477 1.16676,0.92938 1.16676,0.93405 1.16676,0.93879 1.16675,0.94358 1.16676,0.94846 1.16676,0.95341 1.16676,0.95842 1.16676,0.96353 1.16676,0.9687 1.16676,0.97397 1.16675,0.97933 1.16676,0.98476 1.16676,0.99031 1.16676,0.99594 1.16676,1.00167 1.16676,1.00752 1.16676,1.01348 1.16675,1.01954 1.16676,1.02572 1.16676,1.03203 1.16676,1.03847 1.16676,1.04504 1.16676,1.05175 1.16675,1.05859 1.16676,1.0656 1.16676,1.07276 1.16676,1.08007 1.16676,1.08756 1.16676,1.09522 1.16676,1.10309 1.16675,1.11113 1.16676,1.11936 1.16676,1.12782 1.16676,1.13649 1.16676,1.14539 1.16676,1.15454 1.16676,1.16393 1.16675,1.17359 1.16676,1.18351 1.16676,1.19374 1.16676,1.20428 1.16676,1.21513 1.16676,1.22632 1.16676,1.23787 1.16676,1.24979 1.16675,1.26211 1.16676,1.27485 1.16676,1.28803 1.16676,1.30168 1.16676,1.31583 1.16676,1.33052 1.16675,1.34577 1.16676,1.36161 1.16676,1.37809 1.16676,1.39527 1.16676,1.41318 1.16676,1.43187 1.16676,1.4514 1.16675,1.47186 1.16676,1.49328 1.16676,1.51578 1.16676,1.53942 1.16676,1.56431 1.16676,1.59059 1.16676,1.61834 1.16675,1.64773 1.16676,1.67894 1.16676,1.71214 1.16676,1.74755 1.16676,1.78544 1.16676,1.82608 1.16676,1.86985 1.16675,1.91714 1.16676,1.96846 1.16676,2.02442 1.16676,2.08571 1.16676,2.15329 1.16676,2.22824 1.16675,2.31203 1.16676,2.40652 1.16676,2.51419 1.16676,2.63837 1.16676,2.78374 1.16676,2.95707 1.16676,3.16861 1.16675,3.43473 1.16676,3.78379 1.16676,4.27036 1.16676,5.01815 1.16676,6.40388 1.16676,11.18538 0.61094,6.14206 z"
       style="fill:#004f20"
       id="path12" />
  </g>
  <g
     id="patch_4"
     transform="translate(-73.832727,-53.568052)">
    <path
       clip-path="url(#p788a0bc363)"
       d="m 74.876153,295.48608 0.974817,-50.93255 1.166759,-28.89189 1.166759,-19.37062 1.166758,-14.94631 1.166759,-12.21016 1.166758,-10.29639 1.166759,-8.861 1.166758,-7.73471 1.166759,-6.82252 1.166758,-6.06621 1.166759,-5.42768 1.166758,-4.88073 1.166759,-4.40665 1.166758,-3.99165 1.166759,-3.62529 1.166759,-3.29954 1.166758,-3.00801 1.166759,-2.745677 1.166758,-2.508408 1.166759,-2.292846 1.166758,-2.096202 1.166759,-1.916143 1.16676,-1.750706 1.16676,-1.598221 1.16675,-1.45726 1.16676,-1.326593 1.16676,-1.20516 1.16676,-1.092034 1.16676,-0.986407 1.16676,-0.887569 1.16676,-0.794895 1.16675,-0.707831 1.16676,-0.625885 1.16676,-0.548619 1.16676,-0.475641 1.16676,-0.4066 1.16676,-0.34118 1.16676,-0.279096 1.16675,-0.22009 1.16676,-0.16393 1.16676,-0.110404 1.16676,-0.05932 1.16676,-0.0105 1.16676,0.03622 1.16676,0.08098 1.16675,0.123923 1.16676,0.165164 1.16676,0.204824 1.16676,0.243006 1.16676,0.279809 1.16676,0.31532 1.16676,0.349628 1.16675,0.382806 1.16676,0.414928 1.16676,0.446063 1.16676,0.47627 1.16676,0.505611 1.16676,0.53414 1.16676,0.561908 1.16675,0.588964 1.16676,0.615352 1.16676,0.641116 1.16676,0.666297 1.16676,0.690932 1.16676,0.715057 1.16676,0.738706 1.16675,0.761913 1.16676,0.784708 1.16676,0.80712 1.16676,0.829177 1.16676,0.850907 1.16676,0.872335 1.16675,0.893486 1.16676,0.914383 1.16676,0.935051 1.16676,0.955511 1.16676,0.975784 1.16676,0.995892 1.16676,1.015854 1.16675,1.035693 1.16676,1.055425 1.16676,1.075071 1.16676,1.09465 1.16676,1.114183 1.16676,1.13368 1.16676,1.15317 1.16675,1.17266 1.16676,1.19219 1.16676,1.21175 1.16676,1.23137 1.16676,1.25109 1.16676,1.27089 1.16676,1.29081 1.16675,1.31088 1.16676,1.33111 1.16676,1.35151 1.16676,1.37211 1.16676,1.39294 1.16676,1.41401 1.16676,1.43536 1.16675,1.45699 1.16676,1.47894 1.16676,1.50125 1.16676,1.52392 1.16676,1.547 1.16676,1.57051 1.16676,1.5945 1.16675,1.61899 1.16676,1.64401 1.16676,1.66963 1.16676,1.69586 1.16676,1.72276 1.16676,1.75039 1.16675,1.7788 1.16676,1.80802 1.16676,1.83815 1.16676,1.86924 1.16676,1.90137 1.16676,1.93461 1.16676,1.96907 1.16675,2.00483 1.16676,2.042 1.16676,2.08072 1.16676,2.12111 1.16676,2.16332 1.16676,2.20752 1.16676,2.25389 1.16675,2.30267 1.16676,2.35408 1.16676,2.40841 1.16676,2.46598 1.16676,2.52715 1.16676,2.59236 1.16676,2.66212 1.16675,2.73702 1.16676,2.81776 1.16676,2.90521 1.16676,3.00039 1.16676,3.10458 1.16676,3.21938 1.16676,3.34676 1.16675,3.48931 1.16676,3.6504 1.16676,3.83454 1.16676,4.04797 1.16676,4.29954 1.16676,4.60241 1.16676,4.97708 1.16675,5.45787 1.16676,6.10752 1.16676,7.05785 1.16676,8.65536 1.16676,12.38723 0.40185,18.36107 z"
       style="fill:#b95000"
       id="path15" />
  </g>
  <defs
     id="defs255">
    <clipPath
       id="p788a0bc363">
      <rect
         height="266.112"
         width="357.12"
         x="57.599998"
         y="41.472"
         id="rect252" />
    </clipPath>
  </defs>
</svg>
